<svg width="1893" height="1080" viewBox="0 0 1893 1080" fill="none" xmlns="http://www.w3.org/2000/svg">
<g filter="url(#filter0_f_1_72)">
<path d="M1877.69 -1L1881.22 10.8874H1892.62L1883.39 18.2342L1886.92 30.1216L1877.69 22.7748L1868.47 30.1216L1871.99 18.2342L1862.77 10.8874H1874.17L1877.69 -1Z" fill="#C3AC98"/>
<path d="M1499.69 295L1503.22 306.887H1514.62L1505.39 314.234L1508.92 326.122L1499.69 318.775L1490.47 326.122L1493.99 314.234L1484.77 306.887H1496.17L1499.69 295Z" fill="#C3AC98"/>
<path d="M1307.69 146L1311.22 157.887H1322.62L1313.39 165.234L1316.92 177.122L1307.69 169.775L1298.47 177.122L1301.99 165.234L1292.77 157.887H1304.17L1307.69 146Z" fill="#C3AC98"/>
<path d="M1436.69 -17L1440.22 -5.11259H1451.62L1442.39 2.23423L1445.92 14.1216L1436.69 6.77482L1427.47 14.1216L1430.99 2.23423L1421.77 -5.11259H1433.17L1436.69 -17Z" fill="#C3AC98"/>
<path d="M1580.69 503L1577.17 514.887H1565.77L1574.99 522.234L1571.47 534.122L1580.69 526.775L1589.92 534.122L1586.39 522.234L1595.62 514.887H1584.22L1580.69 503Z" fill="#C3AC98"/>
<path d="M1846.69 540L1843.17 551.887H1831.77L1840.99 559.234L1837.47 571.122L1846.69 563.775L1855.92 571.122L1852.39 559.234L1861.62 551.887H1850.22L1846.69 540Z" fill="#C3AC98"/>
<path d="M562.692 922L559.169 933.887H547.768L556.992 941.234L553.469 953.122L562.692 945.775L571.916 953.122L568.393 941.234L577.617 933.887H566.215L562.692 922Z" fill="#C3AC98"/>
<path d="M498.692 691L495.169 702.887H483.768L492.992 710.234L489.469 722.122L498.692 714.775L507.916 722.122L504.393 710.234L513.617 702.887H502.215L498.692 691Z" fill="#C3AC98"/>
<path d="M274.692 506L271.169 517.887H259.768L268.992 525.234L265.469 537.122L274.692 529.775L283.916 537.122L280.393 525.234L289.617 517.887H278.215L274.692 506Z" fill="#C3AC98"/>
<path d="M467.692 1057L464.169 1068.89H452.768L461.992 1076.23L458.469 1088.12L467.692 1080.77L476.916 1088.12L473.393 1076.23L482.617 1068.89H471.215L467.692 1057Z" fill="#C3AC98"/>
<path d="M22.6923 595L19.1692 606.887H7.76806L16.9918 614.234L13.4686 626.122L22.6923 618.775L31.916 626.122L28.3929 614.234L37.6166 606.887H26.2155L22.6923 595Z" fill="#C3AC98"/>
<path d="M299.692 743L296.169 754.887H284.768L293.992 762.234L290.469 774.122L299.692 766.775L308.916 774.122L305.393 762.234L314.617 754.887H303.215L299.692 743Z" fill="#C3AC98"/>
</g>
<defs>
<filter id="filter0_f_1_72" x="0.468066" y="-24.3" width="1899.45" height="1119.72" filterUnits="userSpaceOnUse" color-interpolation-filters="sRGB">
<feFlood flood-opacity="0" result="BackgroundImageFix"/>
<feBlend mode="normal" in="SourceGraphic" in2="BackgroundImageFix" result="shape"/>
<feGaussianBlur stdDeviation="3.65" result="effect1_foregroundBlur_1_72"/>
</filter>
</defs>
</svg>