<svg width="387" height="445" viewBox="0 0 387 445" fill="none" xmlns="http://www.w3.org/2000/svg">
<g filter="url(#filter0_f_1_86)">
<mask id="mask0_1_86" style="mask-type:alpha" maskUnits="userSpaceOnUse" x="9" y="9" width="427" height="427">
<circle cx="222.5" cy="222.5" r="211.5" fill="#EE4510" stroke="black" stroke-width="4"/>
</mask>
<g mask="url(#mask0_1_86)">
<rect x="9" y="9" width="427" height="427" fill="#FF6A00"/>
<g filter="url(#filter1_i_1_86)">
<path d="M199.732 242.858C83.8119 203.452 10.2773 271.64 -12 310.659V421.923L224.573 448L554 407.435L438.671 242.858C407.325 259.277 315.653 282.264 199.732 242.858Z" fill="#FF7614"/>
</g>
<path d="M199.732 242.858C83.8119 203.452 10.2773 271.64 -12 310.659V421.923L224.573 448L554 407.435L438.671 242.858C407.325 259.277 315.653 282.264 199.732 242.858Z" stroke="black" stroke-width="3"/>
<g filter="url(#filter2_i_1_86)">
<path d="M241.101 324.361C347.806 296.577 415.494 344.654 436 372.165V450.614L218.236 469L-85 440.399L21.1599 324.361C50.0135 335.937 134.397 352.145 241.101 324.361Z" fill="#FF8228"/>
</g>
<path d="M241.101 324.361C347.806 296.577 415.494 344.654 436 372.165V450.614L218.236 469L-85 440.399L21.1599 324.361C50.0135 335.937 134.397 352.145 241.101 324.361Z" stroke="black" stroke-width="3"/>
<g filter="url(#filter3_d_1_86)">
<path d="M248.268 201.502C364.188 246.356 437.723 168.742 460 124.328V-2.31747L223.427 -32L-106 14.1728L9.32916 201.502C40.675 182.813 132.347 156.649 248.268 201.502Z" fill="#EE4510"/>
<path d="M248.268 201.502C364.188 246.356 437.723 168.742 460 124.328V-2.31747L223.427 -32L-106 14.1728L9.32916 201.502C40.675 182.813 132.347 156.649 248.268 201.502Z" stroke="black" stroke-width="3"/>
</g>
<g filter="url(#filter4_d_1_86)">
<path d="M204.732 192.142C88.8119 231.548 15.2773 163.36 -7 124.341V13.0773L229.573 -13L559 27.5648L443.671 192.142C412.325 175.723 320.653 152.736 204.732 192.142Z" fill="#FF6A00"/>
<path d="M204.732 192.142C88.8119 231.548 15.2773 163.36 -7 124.341V13.0773L229.573 -13L559 27.5648L443.671 192.142C412.325 175.723 320.653 152.736 204.732 192.142Z" stroke="black" stroke-width="3"/>
</g>
<g filter="url(#filter5_d_1_86)">
<path d="M220.732 170.142C104.812 209.548 31.2773 141.36 9 102.341V-8.92265L245.573 -35L575 5.56476L459.671 170.142C428.325 153.723 336.653 130.736 220.732 170.142Z" fill="#FF7614"/>
<path d="M220.732 170.142C104.812 209.548 31.2773 141.36 9 102.341V-8.92265L245.573 -35L575 5.56476L459.671 170.142C428.325 153.723 336.653 130.736 220.732 170.142Z" stroke="black" stroke-width="3"/>
</g>
<g filter="url(#filter6_d_1_86)">
<path d="M224.547 106.142C318.962 145.548 378.855 77.3601 397 38.3407V-72.9227L204.315 -99L-64 -58.4352L29.9342 106.142C55.465 89.7227 130.131 66.736 224.547 106.142Z" fill="#FF8228"/>
<path d="M224.547 106.142C318.962 145.548 378.855 77.3601 397 38.3407V-72.9227L204.315 -99L-64 -58.4352L29.9342 106.142C55.465 89.7227 130.131 66.736 224.547 106.142Z" stroke="black" stroke-width="3"/>
</g>
<g filter="url(#filter7_i_1_86)">
<circle cx="222.5" cy="222.5" r="211.5" stroke="black" stroke-width="4"/>
</g>
</g>
</g>
<defs>
<filter id="filter0_f_1_86" x="0.8" y="0.8" width="443.4" height="443.4" filterUnits="userSpaceOnUse" color-interpolation-filters="sRGB">
<feFlood flood-opacity="0" result="BackgroundImageFix"/>
<feBlend mode="normal" in="SourceGraphic" in2="BackgroundImageFix" result="shape"/>
<feGaussianBlur stdDeviation="4.1" result="effect1_foregroundBlur_1_86"/>
</filter>
<filter id="filter1_i_1_86" x="-13.5" y="229.495" width="570.161" height="224.015" filterUnits="userSpaceOnUse" color-interpolation-filters="sRGB">
<feFlood flood-opacity="0" result="BackgroundImageFix"/>
<feBlend mode="normal" in="SourceGraphic" in2="BackgroundImageFix" result="shape"/>
<feColorMatrix in="SourceAlpha" type="matrix" values="0 0 0 0 0 0 0 0 0 0 0 0 0 0 0 0 0 0 127 0" result="hardAlpha"/>
<feOffset dy="8"/>
<feGaussianBlur stdDeviation="2"/>
<feComposite in2="hardAlpha" operator="arithmetic" k2="-1" k3="1"/>
<feColorMatrix type="matrix" values="0 0 0 0 0 0 0 0 0 0 0 0 0 0 0 0 0 0 0.25 0"/>
<feBlend mode="normal" in2="shape" result="effect1_innerShadow_1_86"/>
</filter>
<filter id="filter2_i_1_86" x="-88.1404" y="314.5" width="525.64" height="160.006" filterUnits="userSpaceOnUse" color-interpolation-filters="sRGB">
<feFlood flood-opacity="0" result="BackgroundImageFix"/>
<feBlend mode="normal" in="SourceGraphic" in2="BackgroundImageFix" result="shape"/>
<feColorMatrix in="SourceAlpha" type="matrix" values="0 0 0 0 0 0 0 0 0 0 0 0 0 0 0 0 0 0 127 0" result="hardAlpha"/>
<feOffset dy="8"/>
<feGaussianBlur stdDeviation="2"/>
<feComposite in2="hardAlpha" operator="arithmetic" k2="-1" k3="1"/>
<feColorMatrix type="matrix" values="0 0 0 0 0 0 0 0 0 0 0 0 0 0 0 0 0 0 0.25 0"/>
<feBlend mode="normal" in2="shape" result="effect1_innerShadow_1_86"/>
</filter>
<filter id="filter3_d_1_86" x="-112.48" y="-33.5131" width="577.98" height="258.013" filterUnits="userSpaceOnUse" color-interpolation-filters="sRGB">
<feFlood flood-opacity="0" result="BackgroundImageFix"/>
<feColorMatrix in="SourceAlpha" type="matrix" values="0 0 0 0 0 0 0 0 0 0 0 0 0 0 0 0 0 0 127 0" result="hardAlpha"/>
<feOffset dy="4"/>
<feGaussianBlur stdDeviation="2"/>
<feComposite in2="hardAlpha" operator="out"/>
<feColorMatrix type="matrix" values="0 0 0 0 0 0 0 0 0 0 0 0 0 0 0 0 0 0 0.25 0"/>
<feBlend mode="normal" in2="BackgroundImageFix" result="effect1_dropShadow_1_86"/>
<feBlend mode="normal" in="SourceGraphic" in2="effect1_dropShadow_1_86" result="shape"/>
</filter>
<filter id="filter4_d_1_86" x="-12.5" y="-14.5101" width="578.161" height="228.015" filterUnits="userSpaceOnUse" color-interpolation-filters="sRGB">
<feFlood flood-opacity="0" result="BackgroundImageFix"/>
<feColorMatrix in="SourceAlpha" type="matrix" values="0 0 0 0 0 0 0 0 0 0 0 0 0 0 0 0 0 0 127 0" result="hardAlpha"/>
<feOffset dy="4"/>
<feGaussianBlur stdDeviation="2"/>
<feComposite in2="hardAlpha" operator="out"/>
<feColorMatrix type="matrix" values="0 0 0 0 0 0 0 0 0 0 0 0 0 0 0 0 0 0 0.25 0"/>
<feBlend mode="normal" in2="BackgroundImageFix" result="effect1_dropShadow_1_86"/>
<feBlend mode="normal" in="SourceGraphic" in2="effect1_dropShadow_1_86" result="shape"/>
</filter>
<filter id="filter5_d_1_86" x="3.5" y="-36.5101" width="578.161" height="228.015" filterUnits="userSpaceOnUse" color-interpolation-filters="sRGB">
<feFlood flood-opacity="0" result="BackgroundImageFix"/>
<feColorMatrix in="SourceAlpha" type="matrix" values="0 0 0 0 0 0 0 0 0 0 0 0 0 0 0 0 0 0 127 0" result="hardAlpha"/>
<feOffset dy="4"/>
<feGaussianBlur stdDeviation="2"/>
<feComposite in2="hardAlpha" operator="out"/>
<feColorMatrix type="matrix" values="0 0 0 0 0 0 0 0 0 0 0 0 0 0 0 0 0 0 0.25 0"/>
<feBlend mode="normal" in2="BackgroundImageFix" result="effect1_dropShadow_1_86"/>
<feBlend mode="normal" in="SourceGraphic" in2="effect1_dropShadow_1_86" result="shape"/>
</filter>
<filter id="filter6_d_1_86" x="-70.387" y="-100.515" width="472.887" height="228.015" filterUnits="userSpaceOnUse" color-interpolation-filters="sRGB">
<feFlood flood-opacity="0" result="BackgroundImageFix"/>
<feColorMatrix in="SourceAlpha" type="matrix" values="0 0 0 0 0 0 0 0 0 0 0 0 0 0 0 0 0 0 127 0" result="hardAlpha"/>
<feOffset dy="4"/>
<feGaussianBlur stdDeviation="2"/>
<feComposite in2="hardAlpha" operator="out"/>
<feColorMatrix type="matrix" values="0 0 0 0 0 0 0 0 0 0 0 0 0 0 0 0 0 0 0.25 0"/>
<feBlend mode="normal" in2="BackgroundImageFix" result="effect1_dropShadow_1_86"/>
<feBlend mode="normal" in="SourceGraphic" in2="effect1_dropShadow_1_86" result="shape"/>
</filter>
<filter id="filter7_i_1_86" x="-1" y="9" width="437" height="437" filterUnits="userSpaceOnUse" color-interpolation-filters="sRGB">
<feFlood flood-opacity="0" result="BackgroundImageFix"/>
<feBlend mode="normal" in="SourceGraphic" in2="BackgroundImageFix" result="shape"/>
<feColorMatrix in="SourceAlpha" type="matrix" values="0 0 0 0 0 0 0 0 0 0 0 0 0 0 0 0 0 0 127 0" result="hardAlpha"/>
<feOffset dx="-10" dy="10"/>
<feGaussianBlur stdDeviation="5"/>
<feComposite in2="hardAlpha" operator="arithmetic" k2="-1" k3="1"/>
<feColorMatrix type="matrix" values="0 0 0 0 0 0 0 0 0 0 0 0 0 0 0 0 0 0 0.25 0"/>
<feBlend mode="normal" in2="shape" result="effect1_innerShadow_1_86"/>
</filter>
</defs>
</svg>